<?xml version="1.0" encoding="iso-8859-1"?>
<!-- Generator: Adobe Illustrator 19.0.0, SVG Export Plug-In . SVG Version: 6.00 Build 0)  -->
<svg version="1.1" id="Capa_1" xmlns="http://www.w3.org/2000/svg" xmlns:xlink="http://www.w3.org/1999/xlink" x="0px" y="0px"
	 viewBox="0 0 490 490" style="enable-background:new 0 0 490 490;" xml:space="preserve">
<g>
	<g>
		<g>
			<g>
				<rect y="341.782" width="104.566" height="21.304"/>
			</g>
			<g>
				<rect x="186.049" y="341.782" width="104.41" height="21.304"/>
			</g>
			<g>
				<path d="M145.23,421.237c-29.585,0-53.656-24.071-53.656-53.656c0-29.59,24.071-53.661,53.656-53.661
					c29.584,0,53.656,24.072,53.656,53.661C198.886,397.166,174.814,421.237,145.23,421.237z M145.23,335.223
					c-17.84,0-32.352,14.517-32.352,32.357c0,17.84,14.511,32.352,32.352,32.352c17.84,0,32.352-14.511,32.352-32.352
					C177.581,349.74,163.07,335.223,145.23,335.223z"/>
			</g>
			<g>
				<path d="M374.116,421.237c-29.595,0-53.667-24.071-53.667-53.656c0-29.59,24.072-53.661,53.667-53.661
					c29.584,0,53.656,24.072,53.656,53.661C427.772,397.166,403.7,421.237,374.116,421.237z M374.116,335.223
					c-17.84,0-32.362,14.517-32.362,32.357c0,17.84,14.522,32.352,32.362,32.352c17.84,0,32.352-14.511,32.352-32.352
					C406.468,349.74,391.956,335.223,374.116,335.223z"/>
			</g>
			<g>
				<polygon points="468.414,363.086 415.112,363.086 415.112,341.782 447.11,341.782 447.11,218.591 369.112,124.442 
					301.111,124.442 301.111,341.782 331.102,341.782 331.102,363.086 279.807,363.086 279.807,103.138 379.12,103.138 
					468.414,210.914 				"/>
			</g>
			<g>
				<path d="M258.741,300.952H15.843V68.763h242.898V300.952z M37.147,279.648h200.29V90.068H37.147V279.648z"/>
			</g>
			<g>
				<path d="M423.226,220.37H317.724v-72.802h47.051L423.226,220.37z M339.028,199.065h39.78l-24.249-30.194h-15.531V199.065z"/>
			</g>
		</g>
		<g>
			<rect x="457.762" y="341.782" width="32.238" height="21.304"/>
		</g>
	</g>
</g>
<g>
</g>
<g>
</g>
<g>
</g>
<g>
</g>
<g>
</g>
<g>
</g>
<g>
</g>
<g>
</g>
<g>
</g>
<g>
</g>
<g>
</g>
<g>
</g>
<g>
</g>
<g>
</g>
<g>
</g>
</svg>
